# xmcd
#
# Track frame offsets: 
#        150
#        23444
#        25559
#        50848
#        57166
#        67959
#        73187
#        102631
#        126043
#        144272
#        155235
#        168239
#        190186
#        216353
#        235018
#        241256
#        270569
#
# Disc length: 3817 seconds
#
# Revision: 0
# Processed by: cddbd v1.5.2PL0 Copyright (c) Steve Scherf et al.
# Submitted via: ExactAudioCopy v0.99pb5
#
DISCID=ed0ee711
DTITLE=La Danse Du Chien - Black Painted Bones
DYEAR=2009
DGENRE=Blues
TTITLE0=Chevrotine
TTITLE1=Love Song
TTITLE2=God Got A Mistress
TTITLE3=Girls Girls Girls
TTITLE4=Black Painted Bones
TTITLE5=Raw To The Left
TTITLE6=Underground
TTITLE7=Nicole
TTITLE8=Funky George
TTITLE9=The Old Man
TTITLE10=Neighbors
TTITLE11=Bee Box
TTITLE12=Domino
TTITLE13=Twisted Body And Broken Mind
TTITLE14=Piano Love Song
TTITLE15=Smoke
TTITLE16=Poney
EXTD=
EXTT0=
EXTT1=
EXTT2=
EXTT3=
EXTT4=
EXTT5=
EXTT6=
EXTT7=
EXTT8=
EXTT9=
EXTT10=
EXTT11=
EXTT12=
EXTT13=
EXTT14=
EXTT15=
EXTT16=
PLAYORDER=
